<?xml version="1.0" encoding="UTF-8"?>
<svg width="1200pt" height="1200pt" version="1.1" viewBox="0 0 1200 1200" xmlns="http://www.w3.org/2000/svg">
 <path d="m427.2 632.11c48.426-2.6211 95.316 17.434 126.88 54.258 31.559 36.824 44.195 86.234 34.191 133.69-10 47.453-41.504 87.559-85.242 108.51-43.734 20.957-94.73 20.379-137.98-1.5625-43.25-21.941-73.836-62.75-82.758-110.42-8.9258-47.672 4.8281-96.777 37.215-132.88 27.59-30.859 66.359-49.434 107.7-51.598zm95.34 58.871c-30.121-27.047-71.113-38.543-110.91-31.105-39.793 7.4414-73.863 32.965-92.184 69.07-18.316 36.102-18.801 78.672-1.3047 115.18 17.496 36.508 50.977 62.801 90.594 71.141 39.617 8.3398 80.855-2.2227 111.59-28.582 30.73-26.355 47.449-65.508 45.238-105.93-1.8438-34.453-17.324-66.754-43.02-89.773zm-288 286.02-111.16 123.9c-4.1602 4.6328-6.3086 10.73-5.9727 16.945 0.33203 6.2188 3.125 12.047 7.7539 16.207 4.6328 4.1602 10.73 6.3086 16.945 5.9727 6.2188-0.33203 12.047-3.125 16.207-7.7539l111.14-123.91c-2.1094-1.3945-4.1133-2.9375-6-4.6211l-23.676-21.238-0.5625-0.45703h-0.003906c-1.707-1.5664-3.3086-3.2422-4.7969-5.0156zm624.3-44.113h56.664v-243.46h-56.664zm-124.19 0h56.664v-141.6l-56.664 0.003907v141.6zm-134.16 0h66.707v-205.58h-20.398c10.133 35.395 11.215 72.77 3.1367 108.69-8.0781 35.926-25.051 69.242-49.363 96.891zm-299.29 58.488c0.52344-0.082031 1.0547-0.13281 1.5859-0.15625 6.4727-0.82812 12.434-3.9531 16.801-8.8086l4.7031-5.2422c-25.125-14.852-47.074-34.516-64.586-57.863l-4.6562 5.1953-0.45703 0.55078h0.003906c-4.6055 5.4648-6.9102 12.5-6.4336 19.625 0.47656 7.1289 3.6992 13.793 8.9883 18.598l0.55078 0.45703 23.16 20.762v-0.003906c5.4375 4.8555 12.586 7.3438 19.859 6.9102h0.55078zm69.938-20.734c0.57031 0.15234 1.1328 0.34766 1.6797 0.57422 31.512 10.762 65.258 13.238 98.004 7.1953 32.746-6.043 63.387-20.406 88.98-41.707 0.51562-0.52344 1.0781-1 1.6797-1.4258 6.5273-5.5938 12.688-11.605 18.43-18 23.613-26.379 39.559-58.715 46.117-93.504 6.5547-34.789 3.4727-70.711-8.9141-103.88-0.29688-0.625-0.54297-1.2773-0.73438-1.9414-18.102-46.676-53.547-84.547-98.922-105.7s-97.172-23.941-144.56-7.7891c-0.63672 0.27734-1.293 0.50781-1.9648 0.68359-21.301 7.5078-41.109 18.707-58.527 33.082-0.52344 0.52344-1.0938 0.99609-1.7031 1.418-6.8789 5.8203-13.352 12.105-19.367 18.816-27.684 30.91-44.73 69.879-48.633 111.19-3.9062 41.309 5.5352 82.781 26.938 118.33l0.37109 0.3125c1.9102 1.707 3.2656 3.9492 3.8984 6.4297 18.422 27.762 43.648 50.336 73.273 65.57 2.4531 0.38281 4.7422 1.4727 6.5898 3.1328l0.20312 0.19141c5.6016 2.6016 11.301 4.9219 17.102 6.9609zm220.8-840.45h-52.023c-2.0508-0.066407-4.0625 0.58203-5.6875 1.8359-0.65625 0.46875-1.0898 1.1836-1.1992 1.9805v98.879c0.10938 0.79688 0.54297 1.5117 1.1992 1.9688 1.6211 1.2617 3.6367 1.918 5.6875 1.8477h318.96c2.0547 0.070312 4.0664-0.58594 5.6875-1.8477 0.66016-0.45703 1.0938-1.1719 1.2031-1.9688v-98.879c-0.10938-0.79688-0.54688-1.5117-1.2031-1.9805-1.625-1.2539-3.6367-1.9023-5.6875-1.8359h-52.008c-6.3203 0.003906-11.715-4.5625-12.754-10.801-3.793-17.406-14.711-32.422-30.098-41.398-19.531-11.715-41.875-17.902-64.648-17.902-22.773 0-45.121 6.1875-64.652 17.902-15.09 8.8398-25.902 23.477-29.914 40.5-0.65625 6.6367-6.2344 11.695-12.902 11.699zm-84.852 73.57-139.41 0.003907c-3.4375-0.003907-6.7344 1.3594-9.168 3.7891-2.4297 2.4336-3.793 5.7305-3.793 9.168v366.9c-13.453 5.3125-26.344 11.953-38.484 19.824v-400.66c0.042969-9.9219 4-19.422 11.016-26.438s16.52-10.973 26.438-11.016h153.38v38.484zm384.63-38.48v38.484h139.41c7.1562 0 12.961 5.8008 12.961 12.957v866.74c-0.007813 7.1523-5.8086 12.953-12.961 12.961h-663.45c-7.1562 0-12.961-5.8047-12.961-12.961v-91.355c-2.2734-0.88672-4.5195-1.8203-6.7422-2.7969l-9.2539 10.32c-6.0898 6.8008-13.836 11.914-22.488 14.844v82.969c0.042969 9.918 4 19.422 11.016 26.438 7.0156 7.0117 16.52 10.973 26.438 11.012h691.42c9.918-0.035157 19.422-3.9961 26.438-11.012 7.0156-7.0117 10.977-16.516 11.012-26.438v-894.65c-0.035157-9.9219-3.9961-19.426-11.012-26.441s-16.52-10.973-26.438-11.012zm33.91 347.32-151.83 151.82c-4.4609 4.4648-11.492 5.0625-16.645 1.4141l-117.71-67.957-52.859 30.516c21.797 20.582 39.133 45.426 50.926 72.984h42.59c7.1523 0.007812 12.945 5.8086 12.945 12.961v218.54h15.684v-154.62c0-7.1602 5.8047-12.961 12.961-12.961h82.586c7.1562 0 12.957 5.8008 12.957 12.961v154.62h15.688v-256.43c-0.003906-3.4375 1.3594-6.7383 3.7891-9.168 2.4336-2.4336 5.7305-3.7969 9.168-3.793h82.586c7.1562 0 12.961 5.8008 12.961 12.961v256.43h25.645-0.003906c7.1602 0 12.961 5.8047 12.961 12.961s-5.8008 12.961-12.961 12.961h-393.6 0.003906c-26.672 21.492-57.996 36.457-91.473 43.703-33.477 7.2461-68.184 6.5742-101.36-1.9688v69.961h637.52v-840.83h-126.45v3.2148c-0.074219 8.4336-3.9023 16.395-10.438 21.723-6.2969 5.2148-14.227 8.0547-22.406 8.0156h-318.96c-8.1719 0.039063-16.098-2.7969-22.391-8.0156-6.543-5.3242-10.375-13.285-10.453-21.723v-3.2148h-126.43v345.53c14.102-3.6289 28.527-5.8555 43.066-6.6484 50.73-2.8047 100.86 12.129 141.78 42.242l67.355-38.879c4.0078-2.3906 8.9922-2.4297 13.031-0.097656l116.59 67.309 144.84-144.85h-29.785c-7.1562 0-12.961-5.8047-12.961-12.961s5.8047-12.961 12.961-12.961h61.07c7.1562 0 12.957 5.8047 12.957 12.961v61.078c0 7.1602-5.8008 12.961-12.957 12.961-7.1602 0-12.961-5.8008-12.961-12.961v-29.793zm-458.47-163.7h133.2c7.1602 0 12.961-5.8008 12.961-12.957 0-7.1602-5.8008-12.961-12.961-12.961h-133.2c-7.1562 0-12.961 5.8008-12.961 12.961 0 7.1562 5.8047 12.957 12.961 12.957zm0 72.684h133.2v0.003906c7.1602 0 12.961-5.8047 12.961-12.961 0-7.1602-5.8008-12.961-12.961-12.961h-133.2c-7.1562 0-12.961 5.8008-12.961 12.961 0 7.1562 5.8047 12.961 12.961 12.961z" fill-rule="evenodd"/>
</svg>
