<?xml version="1.0" encoding="UTF-8"?>
<svg width="1200pt" height="1200pt" version="1.1" viewBox="0 0 1200 1200" xmlns="http://www.w3.org/2000/svg">
 <path d="m200.02 726.2c3.8945 0 7.0508 3.1562 7.0508 7.0469v130.48c0 3.8945-3.1562 7.0469-7.0508 7.0469h-86.398c-3.8945 0-7.0469-3.1523-7.0469-7.0469v-130.48c0-3.8906 3.1523-7.0469 7.0469-7.0469zm187.48-128.53c-1.1094-5.0508-1.668-10.203-1.668-15.371 0-1.6055 0-3.207 0.16406-4.7891l-56.703-47.875c-5.2695 1.2773-10.672 1.9492-16.094 1.9961l-0.57031 0.78125v51.473h46.926l0.003906 0.003906c10.949 0 21.277 5.0938 27.941 13.781zm131.58 86.715h-86.398c-3.8945 0-7.0508 3.1562-7.0508 7.0508v73.441-0.003906c6.3281-8.7266 13.328-16.941 20.945-24.566 22.316-22.375 49.574-39.207 79.578-49.137-0.13672-3.8008-3.2695-6.8086-7.0742-6.7852zm-245.94-72.305v0.003906c-3.8906 0-7.0469 3.1523-7.0469 7.0469v244.6c0 3.8945 3.1562 7.0469 7.0469 7.0469h86.414c3.8906 0 7.0469-3.1523 7.0469-7.0469v-244.6c0-3.8945-3.1562-7.0469-7.0469-7.0469zm-87.07-119.64h8.5547c7.7852 0 14.094-6.3125 14.094-14.098s-6.3086-14.094-14.094-14.094h-8.5547c-7.7852 0-14.094 6.3086-14.094 14.094s6.3086 14.098 14.094 14.098zm-100.18 113.77c-7.7852 0-14.098 6.3125-14.098 14.098s6.3125 14.098 14.098 14.098h70.18c4.0664 11.828 13.062 21.316 24.66 26s24.66 4.1055 35.801-1.5859c11.137-5.6914 19.262-15.934 22.262-28.078 3.0039-12.145 0.58984-24.992-6.6172-35.219l67.934-93.941c4.0508 1.2266 8.2617 1.8516 12.492 1.8594 7.7773-0.003906 15.406-2.1211 22.066-6.1289l82.258 69.473v0.003907c-5.3555 13.801-3.2695 29.387 5.5234 41.293 8.7969 11.91 23.078 18.484 37.848 17.426 14.766-1.0625 27.961-9.6094 34.965-22.656 7.0039-13.043 6.8398-28.766-0.4375-41.66l141.21-159.03-2.1328 9.1055-0.003906 0.003907c-1.7695 7.582 2.9414 15.164 10.523 16.938 7.582 1.7734 15.168-2.9375 16.938-10.523l14.426-62.059c1.1562-4.9531-0.44531-10.148-4.1914-13.586-3.75-3.4414-9.0586-4.5977-13.898-3.0234l-60.633 19.73h0.003906c-7.4062 2.4102-11.457 10.367-9.0469 17.773 2.4141 7.4023 10.371 11.453 17.773 9.043l10.105-3.2969-142.12 160.14c-12.594-5.25-26.93-4.207-38.629 2.8164l-82.258-69.473 0.003906-0.003906c5.4844-14.152 3.1367-30.152-6.1875-42.133-9.3242-11.98-24.258-18.184-39.324-16.34-15.07 1.8438-28.066 11.465-34.227 25.34-6.1641 13.875-4.5859 29.965 4.1484 42.383l-67.934 93.953h0.003906c-10.68-3.2383-22.199-2.2109-32.137 2.8672-9.9336 5.0781-17.516 13.812-21.145 24.367zm440.21 257.52v-17.746c-4.5156 7.6484-7.6133 16.047-9.1445 24.793h2.0977c1.8711 0.007812 3.6719-0.73047 5-2.0547 1.3242-1.3203 2.0703-3.1172 2.0703-4.9922zm63.941-54.215c-1.6406 0-3.2734 0.074219-4.9023 0.17578v54.039c0 3.8945 3.1562 7.0469 7.0508 7.0469h71.004-0.003907c-3.0664-17.172-12.074-32.719-25.445-43.918-13.375-11.199-30.262-17.34-47.703-17.344zm95.621-247.16c0-3.8945-3.1562-7.0508-7.0508-7.0508h-86.398c-3.8906 0-7.0469 3.1562-7.0469 7.0508v118.64c1.6289 0 3.2578-0.11328 4.9023-0.11328l-0.003907-0.003906c33.344-0.078125 66.188 8.1016 95.598 23.812zm-148.13 374c1.8594 1.8555 3.8164 3.6133 5.8633 5.2656h93.359c2.0391-1.6523 3.9922-3.4141 5.8477-5.2656 6.6133-6.5898 11.918-14.367 15.641-22.93h-136.29c3.6992 8.5586 8.9805 16.34 15.574 22.93zm-391.7-458.01c0-7.7852-6.3125-14.094-14.098-14.094h-83.152c-7.7852 0-14.098 6.3086-14.098 14.094s6.3125 14.098 14.098 14.098h83.152c7.7852 0 14.098-6.3125 14.098-14.098zm885.7-368.13h-113.21l149.62 149.66v-113.27c-0.03125-9.6445-3.875-18.887-10.695-25.703-6.8242-6.8203-16.066-10.66-25.711-10.688zm-153.13 189.54h189.47l-189.47-189.47zm-829.82 116.64h102.57-0.003906c7.7852 0 14.098-6.3125 14.098-14.098 0-7.7852-6.3125-14.094-14.098-14.094h-102.57c-7.7852 0-14.098 6.3086-14.098 14.094 0 7.7852 6.3125 14.098 14.098 14.098zm774.84 376.07c0.003907-4.1914-1.6562-8.2109-4.6211-11.176-2.9609-2.9688-6.9805-4.6367-11.172-4.6367-4.1914-0.003906-8.2109 1.6602-11.176 4.625-2.9648 2.9609-4.6328 6.9805-4.6328 11.172-0.003907 4.1914 1.6641 8.2109 4.625 11.176 2.9648 2.9648 6.9844 4.6328 11.176 4.6328 4.1875-0.007813 8.1992-1.6719 11.164-4.6328 2.9609-2.9609 4.6289-6.9727 4.6367-11.16zm305.69-779.82h-682.51c-9.6406 0.027344-18.879 3.8711-25.699 10.691-6.8164 6.8164-10.66 16.055-10.691 25.699v32.992h621.32c17.125 0.019531 33.547 6.8281 45.656 18.934 12.109 12.109 18.922 28.527 18.941 45.652v808.7h32.984c9.6445-0.03125 18.887-3.875 25.707-10.695 6.8203-6.8203 10.664-16.062 10.695-25.707v-869.88c-0.03125-9.6445-3.875-18.887-10.695-25.703-6.8203-6.8203-16.062-10.66-25.707-10.688zm-722.97 957.18h-93.473v46.66h-0.003906c0.03125 9.6445 3.8789 18.883 10.699 25.703 6.8203 6.8203 16.062 10.66 25.707 10.688h128.6c-30.938-20.684-55.664-49.395-71.531-83.051zm-16.875-56.387-321.27-0.003907c-7.7852 0-14.098 6.3125-14.098 14.098 0 7.7852 6.3125 14.098 14.098 14.098h327.47c-2.7422-9.2344-4.8164-18.66-6.2031-28.195zm489.13-585.49h189.47l0.003906 688.54c-0.03125 9.6445-3.875 18.883-10.699 25.703-6.8203 6.8203-16.062 10.66-25.707 10.688h-162.95l-39.5-39.5h0.003907c-9.1094-9.125-21.48-14.238-34.371-14.211-1.4414 0-2.8555 0-4.2695 0.19141-1.418-3.5312-3.5391-6.7422-6.2266-9.4375l-13.465-13.488c23.023-45.027 28.426-97.02 15.156-145.82 10.707 6.125 23.488 7.4727 35.234 3.7188 11.75-3.7539 21.379-12.27 26.547-23.469 5.1641-11.195 5.3945-24.051 0.62891-35.426-4.7656-11.371-14.09-20.223-25.695-24.395-11.605-4.168-24.43-3.2734-35.348 2.4688-10.914 5.7383-18.918 15.801-22.059 27.727-8.7266-14.941-19.34-28.695-31.578-40.926-6.1953-6.1758-12.781-11.949-19.719-17.281v-160.66c-0.007813-9.3438-3.7227-18.305-10.332-24.91-6.6055-6.6055-15.566-10.324-24.91-10.332h-86.398c-9.3438 0.003906-18.305 3.7188-24.914 10.328-6.6055 6.6094-10.32 15.566-10.328 24.914v93.84h-162.18v-37.062c0-0.79688 0-1.5898-0.089843-2.3633 11.098 20.195 31.266 33.789 54.148 36.5 22.883 2.7109 45.668-5.793 61.18-22.836 15.508-17.043 21.836-40.523 16.988-63.051l102.02-114.95c2.8555 1.3867 5.8555 2.4531 8.9453 3.1719 10.926 2.5547 22.422 0.66406 31.953-5.2617 9.5312-5.9219 16.316-15.391 18.863-26.316l14.488-62.059v-0.003906c2.293-9.7852 1.0234-20.066-3.582-29-4.6016-8.9336-12.234-15.934-21.531-19.75s-19.652-4.1914-29.203-1.0664l-60.633 19.73h0.003907c-12.586 4.1172-22.52 13.883-26.848 26.395-4.3281 12.512-2.5547 26.328 4.793 37.344l-102.51 115.58c-2.1719-0.19141-4.3711-0.28906-6.5703-0.28906h0.003906c-5.6133 0-11.207 0.66406-16.664 1.9844l-56.703-47.859c0.11328-1.5898 0.16406-3.1836 0.16406-4.7891-0.019532-18.93-7.5469-37.078-20.93-50.461-13.387-13.387-31.535-20.914-50.461-20.934v-242.25c0.027344-9.6445 3.875-18.887 10.695-25.703 6.8203-6.8203 16.062-10.66 25.707-10.688h501.17v189.54c0 7.4805 2.9688 14.648 8.2578 19.938 5.2852 5.2852 12.457 8.2578 19.934 8.2578zm-361.16 19.895c0-7.7852-6.3125-14.098-14.098-14.098h-74.184c-7.7852 0-14.098 6.3125-14.098 14.098 0 7.7852 6.3125 14.098 14.098 14.098h74.184c7.7852 0 14.098-6.3125 14.098-14.098zm137.23-86.234c0-7.7656-6.2812-14.07-14.047-14.098h-211.46c-7.7852 0-14.098 6.3125-14.098 14.098 0 7.7852 6.3125 14.094 14.098 14.094h211.46c7.7656-0.027343 14.047-6.3281 14.047-14.094zm104.75 240.93c7.7852 0 14.094-6.3125 14.094-14.098s-6.3086-14.098-14.094-14.098h-7.1523c-7.7852 0-14.094 6.3125-14.094 14.098s6.3086 14.098 14.094 14.098zm92.398 128.84v-0.003906c0-11.668-4.6367-22.855-12.887-31.109-8.25-8.25-19.441-12.883-31.109-12.883s-22.859 4.6328-31.109 12.883c-8.25 8.2539-12.887 19.441-12.887 31.109 0 11.672 4.6367 22.859 12.887 31.113 8.25 8.25 19.441 12.883 31.109 12.883 11.66-0.015625 22.836-4.6523 31.082-12.895 8.2461-8.2422 12.891-19.414 12.914-31.074zm110.21-142.96c0-7.7852-6.3125-14.098-14.098-14.098h-135.99c-7.7852 0-14.098 6.3125-14.098 14.098 0 7.7852 6.3125 14.094 14.098 14.094h135.99c7.7773 0 14.082-6.293 14.098-14.07zm-12.633 103.33h-68.211v-0.003907c-7.7852 0-14.094 6.3125-14.094 14.098 0 7.7852 6.3086 14.098 14.094 14.098h68.211c7.7852 0 14.098-6.3125 14.098-14.098 0-7.7852-6.3125-14.098-14.098-14.098zm67.25 226.23v-0.003906c0-7.7852-6.3086-14.094-14.094-14.094h-121.34c-7.7852 0-14.098 6.3086-14.098 14.094 0 7.7891 6.3125 14.098 14.098 14.098h121.34c7.7734 0 14.082-6.2969 14.094-14.07zm-135.43-36.961h68.211c7.7852 0 14.094-6.3125 14.094-14.098 0-7.7852-6.3086-14.098-14.094-14.098h-68.211c-7.7852 0-14.098 6.3125-14.098 14.098 0 7.7852 6.3125 14.098 14.098 14.098zm121.34-138.16h-121.34c-7.7852 0-14.098 6.3086-14.098 14.094 0 7.7891 6.3125 14.098 14.098 14.098h121.34c7.7852 0 14.094-6.3086 14.094-14.098 0-7.7852-6.3086-14.094-14.094-14.094zm-15.477-254.74h-234.81c-7.7852 0-14.094 6.3125-14.094 14.098s6.3086 14.098 14.094 14.098h234.81c7.7852 0 14.098-6.3125 14.098-14.098s-6.3125-14.098-14.098-14.098zm-179.25 227.5c-4.1914 0-8.2109 1.6641-11.172 4.625-2.9648 2.9648-4.6289 6.9844-4.6289 11.176s1.6641 8.2109 4.6289 11.172c2.9609 2.9648 6.9805 4.6289 11.172 4.6289s8.2109-1.6641 11.176-4.6289c2.9609-2.9609 4.625-6.9805 4.625-11.172s-1.668-8.207-4.6289-11.172c-2.9648-2.9609-6.9805-4.6289-11.172-4.6289zm42.402 458.6-69.574 69.574 37.617 37.617c3.8516 3.8281 9.0586 5.9766 14.488 5.9766 5.4297 0 10.641-2.1484 14.488-5.9766l40.598-40.598c3.8281-3.8516 5.9766-9.0586 5.9766-14.488 0-5.4297-2.1484-10.641-5.9766-14.488zm-89.809-60.832-40.586 40.598v-0.003906c-1.2578 1.2695-2.4453 2.6016-3.5625 3.9922l-28.852-28.852h0.003906c-36.07 24.125-79.82 33.969-122.75 27.617-42.922-6.3516-81.949-28.445-109.48-61.977-27.535-33.535-41.613-76.113-39.492-119.45 2.1172-43.34 20.285-84.34 50.961-115.02 30.68-30.688 71.676-48.863 115.02-50.996 43.336-2.1328 85.918 11.934 119.46 39.461 33.539 27.531 55.641 66.551 62.004 109.47 6.3633 42.922-3.4688 86.676-27.582 122.75l28.852 28.863c-1.3906 1.1133-2.7227 2.2969-3.9922 3.5469zm-97.668-202.02c-19.219-19.223-45.289-30.02-72.473-30.02s-53.25 10.801-72.473 30.02c-19.223 19.223-30.02 45.293-30.02 72.473 0 27.184 10.797 53.254 30.02 72.473 19.223 19.223 45.289 30.02 72.473 30.02s53.254-10.797 72.473-30.016c19.227-19.219 30.031-45.289 30.031-72.477 0-27.184-10.805-53.254-30.031-72.473zm167.53 242.91-20.941-20.996c-3.8516-3.8242-9.0586-5.9727-14.488-5.9727-5.4297 0-10.637 2.1484-14.488 5.9727l-40.598 40.598c-3.8281 3.8516-5.9766 9.0625-5.9766 14.488 0 5.4297 2.1484 10.641 5.9766 14.492l20.941 20.941 69.574-69.574z"/>
</svg>
