<?xml version="1.0" encoding="UTF-8"?>
<svg width="1200pt" height="1200pt" version="1.1" viewBox="0 0 1200 1200" xmlns="http://www.w3.org/2000/svg">
 <g>
  <path d="m1096.5 220.15h-992.93c-18.32 0-33.223 14.906-33.223 33.234v582.09c0 18.312 14.906 33.215 33.223 33.215h405.71v107.12l-103.27 56.762c-3.7539 2.0703-5.6289 6.4102-4.5703 10.547 1.0625 4.1562 4.8047 7.0508 9.082 7.0508h379.01c4.2773 0 8.0195-2.8945 9.082-7.0508 1.0625-4.1367-0.81641-8.4766-4.5703-10.547l-103.27-56.762v-107.12h405.71c18.32 0 33.223-14.906 33.223-33.215l0.011719-582.09c0-18.332-14.906-33.234-33.223-33.234zm-992.93 28.125h992.93c2.8125 0 5.0977 2.2891 5.0977 5.1094v536.96h-1003.1v-536.96c0-2.8203 2.2891-5.1094 5.0977-5.1094z"/>
  <path d="m214.2 574.88h75v127.15h-75z"/>
  <path d="m334.76 482.72h75v219.3h-75z"/>
  <path d="m455.32 528.81h75v173.22h-75z"/>
  <path d="m579.38 436.63h75v265.39h-75z"/>
  <path d="m173.33 715.69h518.43v18.75h-518.43z"/>
  <path d="m372.26 384.39 120.56 83.512 204.27-141.5-10.672-15.418-193.6 134.11-120.56-83.516-204.27 141.5 10.676 15.418z"/>
  <path d="m890.55 572.17c74.727 0 135.53-60.809 135.53-135.54 0-74.727-60.801-135.52-135.53-135.52-74.727 0-135.53 60.789-135.53 135.52 0.003906 74.727 60.805 135.54 135.53 135.54zm-107.4-135.53h107.4v107.41c-59.215-0.003907-107.4-48.172-107.4-107.41z"/>
  <path d="m820.31 606.04h191.7v18.75h-191.7z"/>
  <path d="m775.11 715.67h236.9v18.75h-236.9z"/>
  <path d="m775.11 660.85h236.9v18.75h-236.9z"/>
 </g>
</svg>
